<svg width="630" height="470" viewBox="0 0 630 470" fill="none" xmlns="http://www.w3.org/2000/svg">
  <style>
    .header { font: 700 20px 'Segoe UI', Ubuntu, Sans-Serif, 'Apple Color Emoji', 'Segoe UI Emoji', 'Segoe UI Symbol', 'Noto Color Emoji'; fill: #58a6ff; animation: fadeIn 0.8s ease-in-out; }
    .stat { font: 600 16px 'Segoe UI', Ubuntu, Sans-Serif, 'Apple Color Emoji', 'Segoe UI Emoji', 'Segoe UI Symbol', 'Noto Color Emoji'; fill: #c9d1d9; }
    .bold { font-weight: 800; fill: #ffffff; }
    .fork-note { font: italic 11px 'Segoe UI', Ubuntu, Sans-Serif, 'Apple Color Emoji', 'Segoe UI Emoji', 'Segoe UI Symbol', 'Noto Color Emoji'; fill: #6e7681; }
    text { font-family: 'Segoe UI', Ubuntu, Sans-Serif, 'Apple Color Emoji', 'Segoe UI Emoji', 'Segoe UI Symbol', 'Noto Color Emoji'; }
    @keyframes fadeIn { from { opacity: 0; } to { opacity: 1; } }
    @keyframes float { 0% { transform: translateY(0px); } 50% { transform: translateY(-5px); } 100% { transform: translateY(0px); } }
    .floating { animation: float 3s ease-in-out infinite; }
  </style>
  <rect width="628" height="468" x="1" y="1" rx="15" fill="#0d1117" stroke="#30363d" stroke-width="2" />
  <g class="floating">
    <text x="25" y="45" class="header">life-web-arch's Digital Footprint</text>
  </g>
  <g transform="translate(25, 80)">
    <text x="0" y="0" class="stat">📦 Total Repositories: <tspan class="bold">36</tspan></text>
    <text x="0" y="30" class="stat">🗓️ Member Since: <tspan class="bold">January 22, 2024 at 15:54 UTC (21:24 IST)</tspan></text>
    <text x="0" y="60" class="stat">🔥 Lifetime Commits: <tspan class="bold">1,373</tspan></text>
    <text x="0" y="90" class="stat">✨ Total Contributions: <tspan class="bold">1,418</tspan></text>
    <text x="0" y="120" class="stat">💾 Total Codebase Size: <tspan class="bold">56.7 MB</tspan></text>
    
    <text x="0" y="160" class="stat" fill="#79c0ff">💻 Lines of Code files Authored: <tspan class="bold" fill="#79c0ff">537,635</tspan></text>

    <text x="0" y="200" class="stat">🏆 Comprehensive Language Breakdown</text>
    <g transform="translate(0, 220)">
        <clipPath id="bar-clip">
            <rect x="0" y="0" width="520" height="12" rx="6" />
        </clipPath>
        <g clip-path="url(#bar-clip)">
            <rect x="0" y="0" width="211.4498354015426" height="12" fill="#e34c26" />
<rect x="211.4498354015426" y="0" width="136.6566719827776" height="12" fill="#4F5D95" />
<rect x="348.1065073843202" y="0" width="74.38069119985134" height="12" fill="#3178c6" />
<rect x="422.48719858417155" y="0" width="41.86760066798161" height="12" fill="#3572A5" />
<rect x="464.35479925215316" y="0" width="28.737749016634798" height="12" fill="#563d7c" />
<rect x="493.09254826878794" y="0" width="13.852898746620184" height="12" fill="#89e051" />
<rect x="506.94544701540815" y="0" width="11.205623776507863" height="12" fill="#f1e05a" />
<rect x="518.151070791916" y="0" width="1.712851924647958" height="12" fill="#336790" />

        </g>
        <circle cx="5" cy="35" r="5" fill="#e34c26" />
<text x="15" y="39" font-size="13" font-weight="600" fill="#c9d1d9">HTML 40.7%</text>
<circle cx="245" cy="35" r="5" fill="#4F5D95" />
<text x="255" y="39" font-size="13" font-weight="600" fill="#c9d1d9">PHP 26.3%</text>
<circle cx="5" cy="59" r="5" fill="#3178c6" />
<text x="15" y="63" font-size="13" font-weight="600" fill="#c9d1d9">TypeScript 14.3%</text>
<circle cx="245" cy="59" r="5" fill="#3572A5" />
<text x="255" y="63" font-size="13" font-weight="600" fill="#c9d1d9">Python 8.1%</text>
<circle cx="5" cy="83" r="5" fill="#563d7c" />
<text x="15" y="87" font-size="13" font-weight="600" fill="#c9d1d9">CSS 5.5%</text>
<circle cx="245" cy="83" r="5" fill="#89e051" />
<text x="255" y="87" font-size="13" font-weight="600" fill="#c9d1d9">Shell 2.7%</text>
<circle cx="5" cy="107" r="5" fill="#f1e05a" />
<text x="15" y="111" font-size="13" font-weight="600" fill="#c9d1d9">JavaScript 2.2%</text>
<circle cx="245" cy="107" r="5" fill="#336790" />
<text x="255" y="111" font-size="13" font-weight="600" fill="#c9d1d9">PLpgSQL 0.3%</text>
<circle cx="5" cy="131" r="5" fill="#858585" />
<text x="15" y="135" font-size="13" font-weight="600" fill="#c9d1d9">Other (Dockerfile)</text>

    </g>
  </g>
  <line x1="25" y1="430" x2="605" y2="430" stroke="#30363d" stroke-width="1" />
  <text x="25" y="455" class="fork-note">* This data excludes forks and includes all private activity</text>
  <text x="605" y="455" class="fork-note" text-anchor="end">Last Updated: March 29, 2026 at 06:59 IST</text>
</svg>